<?xml version="1.0" encoding="utf-8" standalone="no"?>
<!DOCTYPE svg PUBLIC "-//W3C//DTD SVG 1.1//EN"
  "http://www.w3.org/Graphics/SVG/1.1/DTD/svg11.dtd">
<!-- Created with matplotlib (https://matplotlib.org/) -->
<svg height="595.44pt" version="1.1" viewBox="0 0 842.4 595.44" width="842.4pt" xmlns="http://www.w3.org/2000/svg" xmlns:xlink="http://www.w3.org/1999/xlink">
 <metadata>
  <rdf:RDF xmlns:cc="http://creativecommons.org/ns#" xmlns:dc="http://purl.org/dc/elements/1.1/" xmlns:rdf="http://www.w3.org/1999/02/22-rdf-syntax-ns#">
   <cc:Work>
    <dc:type rdf:resource="http://purl.org/dc/dcmitype/StillImage"/>
    <dc:date>2020-11-29T14:45:10.147604</dc:date>
    <dc:format>image/svg+xml</dc:format>
    <dc:creator>
     <cc:Agent>
      <dc:title>Matplotlib v3.3.2, https://matplotlib.org/</dc:title>
     </cc:Agent>
    </dc:creator>
   </cc:Work>
  </rdf:RDF>
 </metadata>
 <defs>
  <style type="text/css">*{stroke-linecap:butt;stroke-linejoin:round;}</style>
 </defs>
 <g id="figure_1">
  <g id="patch_1">
   <path d="M 0 595.44 
L 842.4 595.44 
L 842.4 0 
L 0 0 
z
" style="fill:#ffffff;"/>
  </g>
  <g id="axes_1">
   <g id="patch_2">
    <path d="M 105.3 521.01 
L 758.16 521.01 
L 758.16 71.4528 
L 105.3 71.4528 
z
" style="fill:#eaeaf2;"/>
   </g>
   <g id="matplotlib.axis_1">
    <g id="xtick_1">
     <g id="text_1">
      <!-- Above Poverty Level -->
      <g style="fill:#262626;" transform="translate(218.072266 538.383594)scale(0.11 -0.11)">
       <defs>
        <path d="M -0.140625 0 
L 27.34375 71.578125 
L 37.546875 71.578125 
L 66.84375 0 
L 56.0625 0 
L 47.703125 21.6875 
L 17.78125 21.6875 
L 9.90625 0 
z
M 20.515625 29.390625 
L 44.78125 29.390625 
L 37.3125 49.21875 
Q 33.890625 58.25 32.234375 64.0625 
Q 30.859375 57.171875 28.375 50.390625 
z
" id="ArialMT-65"/>
        <path d="M 14.703125 0 
L 6.546875 0 
L 6.546875 71.578125 
L 15.328125 71.578125 
L 15.328125 46.046875 
Q 20.90625 53.03125 29.546875 53.03125 
Q 34.328125 53.03125 38.59375 51.09375 
Q 42.875 49.171875 45.625 45.671875 
Q 48.390625 42.1875 49.953125 37.25 
Q 51.515625 32.328125 51.515625 26.703125 
Q 51.515625 13.375 44.921875 6.09375 
Q 38.328125 -1.171875 29.109375 -1.171875 
Q 19.921875 -1.171875 14.703125 6.5 
z
M 14.59375 26.3125 
Q 14.59375 17 17.140625 12.84375 
Q 21.296875 6.0625 28.375 6.0625 
Q 34.125 6.0625 38.328125 11.0625 
Q 42.53125 16.0625 42.53125 25.984375 
Q 42.53125 36.140625 38.5 40.96875 
Q 34.46875 45.796875 28.765625 45.796875 
Q 23 45.796875 18.796875 40.796875 
Q 14.59375 35.796875 14.59375 26.3125 
z
" id="ArialMT-98"/>
        <path d="M 3.328125 25.921875 
Q 3.328125 40.328125 11.328125 47.265625 
Q 18.015625 53.03125 27.640625 53.03125 
Q 38.328125 53.03125 45.109375 46.015625 
Q 51.90625 39.015625 51.90625 26.65625 
Q 51.90625 16.65625 48.90625 10.90625 
Q 45.90625 5.171875 40.15625 2 
Q 34.421875 -1.171875 27.640625 -1.171875 
Q 16.75 -1.171875 10.03125 5.8125 
Q 3.328125 12.796875 3.328125 25.921875 
z
M 12.359375 25.921875 
Q 12.359375 15.96875 16.703125 11.015625 
Q 21.046875 6.0625 27.640625 6.0625 
Q 34.1875 6.0625 38.53125 11.03125 
Q 42.875 16.015625 42.875 26.21875 
Q 42.875 35.84375 38.5 40.796875 
Q 34.125 45.75 27.640625 45.75 
Q 21.046875 45.75 16.703125 40.8125 
Q 12.359375 35.890625 12.359375 25.921875 
z
" id="ArialMT-111"/>
        <path d="M 21 0 
L 1.265625 51.859375 
L 10.546875 51.859375 
L 21.6875 20.796875 
Q 23.484375 15.765625 25 10.359375 
Q 26.171875 14.453125 28.265625 20.21875 
L 39.796875 51.859375 
L 48.828125 51.859375 
L 29.203125 0 
z
" id="ArialMT-118"/>
        <path d="M 42.09375 16.703125 
L 51.171875 15.578125 
Q 49.03125 7.625 43.21875 3.21875 
Q 37.40625 -1.171875 28.375 -1.171875 
Q 17 -1.171875 10.328125 5.828125 
Q 3.65625 12.84375 3.65625 25.484375 
Q 3.65625 38.578125 10.390625 45.796875 
Q 17.140625 53.03125 27.875 53.03125 
Q 38.28125 53.03125 44.875 45.953125 
Q 51.46875 38.875 51.46875 26.03125 
Q 51.46875 25.25 51.421875 23.6875 
L 12.75 23.6875 
Q 13.234375 15.140625 17.578125 10.59375 
Q 21.921875 6.0625 28.421875 6.0625 
Q 33.25 6.0625 36.671875 8.59375 
Q 40.09375 11.140625 42.09375 16.703125 
z
M 13.234375 30.90625 
L 42.1875 30.90625 
Q 41.609375 37.453125 38.875 40.71875 
Q 34.671875 45.796875 27.984375 45.796875 
Q 21.921875 45.796875 17.796875 41.75 
Q 13.671875 37.703125 13.234375 30.90625 
z
" id="ArialMT-101"/>
        <path id="ArialMT-32"/>
        <path d="M 7.71875 0 
L 7.71875 71.578125 
L 34.71875 71.578125 
Q 41.84375 71.578125 45.609375 70.90625 
Q 50.875 70.015625 54.4375 67.546875 
Q 58.015625 65.09375 60.1875 60.640625 
Q 62.359375 56.203125 62.359375 50.875 
Q 62.359375 41.75 56.546875 35.421875 
Q 50.734375 29.109375 35.546875 29.109375 
L 17.1875 29.109375 
L 17.1875 0 
z
M 17.1875 37.546875 
L 35.6875 37.546875 
Q 44.875 37.546875 48.734375 40.96875 
Q 52.59375 44.390625 52.59375 50.59375 
Q 52.59375 55.078125 50.3125 58.265625 
Q 48.046875 61.46875 44.34375 62.5 
Q 41.9375 63.140625 35.5 63.140625 
L 17.1875 63.140625 
z
" id="ArialMT-80"/>
        <path d="M 6.5 0 
L 6.5 51.859375 
L 14.40625 51.859375 
L 14.40625 44 
Q 17.4375 49.515625 20 51.265625 
Q 22.5625 53.03125 25.640625 53.03125 
Q 30.078125 53.03125 34.671875 50.203125 
L 31.640625 42.046875 
Q 28.421875 43.953125 25.203125 43.953125 
Q 22.3125 43.953125 20.015625 42.21875 
Q 17.71875 40.484375 16.75 37.40625 
Q 15.28125 32.71875 15.28125 27.15625 
L 15.28125 0 
z
" id="ArialMT-114"/>
        <path d="M 25.78125 7.859375 
L 27.046875 0.09375 
Q 23.34375 -0.6875 20.40625 -0.6875 
Q 15.625 -0.6875 12.984375 0.828125 
Q 10.359375 2.34375 9.28125 4.8125 
Q 8.203125 7.28125 8.203125 15.1875 
L 8.203125 45.015625 
L 1.765625 45.015625 
L 1.765625 51.859375 
L 8.203125 51.859375 
L 8.203125 64.703125 
L 16.9375 69.96875 
L 16.9375 51.859375 
L 25.78125 51.859375 
L 25.78125 45.015625 
L 16.9375 45.015625 
L 16.9375 14.703125 
Q 16.9375 10.9375 17.40625 9.859375 
Q 17.875 8.796875 18.921875 8.15625 
Q 19.96875 7.515625 21.921875 7.515625 
Q 23.390625 7.515625 25.78125 7.859375 
z
" id="ArialMT-116"/>
        <path d="M 6.203125 -19.96875 
L 5.21875 -11.71875 
Q 8.109375 -12.5 10.25 -12.5 
Q 13.1875 -12.5 14.9375 -11.515625 
Q 16.703125 -10.546875 17.828125 -8.796875 
Q 18.65625 -7.46875 20.515625 -2.25 
Q 20.75 -1.515625 21.296875 -0.09375 
L 1.609375 51.859375 
L 11.078125 51.859375 
L 21.875 21.828125 
Q 23.96875 16.109375 25.640625 9.8125 
Q 27.15625 15.875 29.25 21.625 
L 40.328125 51.859375 
L 49.125 51.859375 
L 29.390625 -0.875 
Q 26.21875 -9.421875 24.46875 -12.640625 
Q 22.125 -17 19.09375 -19.015625 
Q 16.0625 -21.046875 11.859375 -21.046875 
Q 9.328125 -21.046875 6.203125 -19.96875 
z
" id="ArialMT-121"/>
        <path d="M 7.328125 0 
L 7.328125 71.578125 
L 16.796875 71.578125 
L 16.796875 8.453125 
L 52.046875 8.453125 
L 52.046875 0 
z
" id="ArialMT-76"/>
        <path d="M 6.390625 0 
L 6.390625 71.578125 
L 15.1875 71.578125 
L 15.1875 0 
z
" id="ArialMT-108"/>
       </defs>
       <use xlink:href="#ArialMT-65"/>
       <use x="66.699219" xlink:href="#ArialMT-98"/>
       <use x="122.314453" xlink:href="#ArialMT-111"/>
       <use x="177.929688" xlink:href="#ArialMT-118"/>
       <use x="227.929688" xlink:href="#ArialMT-101"/>
       <use x="283.544922" xlink:href="#ArialMT-32"/>
       <use x="311.328125" xlink:href="#ArialMT-80"/>
       <use x="378.027344" xlink:href="#ArialMT-111"/>
       <use x="433.642578" xlink:href="#ArialMT-118"/>
       <use x="483.642578" xlink:href="#ArialMT-101"/>
       <use x="539.257812" xlink:href="#ArialMT-114"/>
       <use x="572.558594" xlink:href="#ArialMT-116"/>
       <use x="600.341797" xlink:href="#ArialMT-121"/>
       <use x="650.341797" xlink:href="#ArialMT-32"/>
       <use x="678.125" xlink:href="#ArialMT-76"/>
       <use x="733.740234" xlink:href="#ArialMT-101"/>
       <use x="789.355469" xlink:href="#ArialMT-118"/>
       <use x="839.355469" xlink:href="#ArialMT-101"/>
       <use x="894.970703" xlink:href="#ArialMT-108"/>
      </g>
     </g>
    </g>
    <g id="xtick_2">
     <g id="text_2">
      <!-- Below Poverty Level -->
      <g style="fill:#262626;" transform="translate(545.116719 538.383594)scale(0.11 -0.11)">
       <defs>
        <path d="M 7.328125 0 
L 7.328125 71.578125 
L 34.1875 71.578125 
Q 42.390625 71.578125 47.34375 69.40625 
Q 52.296875 67.234375 55.09375 62.71875 
Q 57.90625 58.203125 57.90625 53.265625 
Q 57.90625 48.6875 55.421875 44.625 
Q 52.9375 40.578125 47.90625 38.09375 
Q 54.390625 36.1875 57.875 31.59375 
Q 61.375 27 61.375 20.75 
Q 61.375 15.71875 59.25 11.390625 
Q 57.125 7.078125 54 4.734375 
Q 50.875 2.390625 46.15625 1.1875 
Q 41.453125 0 34.625 0 
z
M 16.796875 41.5 
L 32.28125 41.5 
Q 38.578125 41.5 41.3125 42.328125 
Q 44.921875 43.40625 46.75 45.890625 
Q 48.578125 48.390625 48.578125 52.15625 
Q 48.578125 55.71875 46.875 58.421875 
Q 45.171875 61.140625 41.984375 62.140625 
Q 38.8125 63.140625 31.109375 63.140625 
L 16.796875 63.140625 
z
M 16.796875 8.453125 
L 34.625 8.453125 
Q 39.203125 8.453125 41.0625 8.796875 
Q 44.34375 9.375 46.53125 10.734375 
Q 48.734375 12.109375 50.140625 14.71875 
Q 51.5625 17.328125 51.5625 20.75 
Q 51.5625 24.75 49.515625 27.703125 
Q 47.46875 30.671875 43.828125 31.859375 
Q 40.1875 33.0625 33.34375 33.0625 
L 16.796875 33.0625 
z
" id="ArialMT-66"/>
        <path d="M 16.15625 0 
L 0.296875 51.859375 
L 9.375 51.859375 
L 17.625 21.921875 
L 20.703125 10.796875 
Q 20.90625 11.625 23.390625 21.484375 
L 31.640625 51.859375 
L 40.671875 51.859375 
L 48.4375 21.78125 
L 51.03125 11.859375 
L 54 21.875 
L 62.890625 51.859375 
L 71.4375 51.859375 
L 55.21875 0 
L 46.09375 0 
L 37.84375 31.0625 
L 35.84375 39.890625 
L 25.34375 0 
z
" id="ArialMT-119"/>
       </defs>
       <use xlink:href="#ArialMT-66"/>
       <use x="66.699219" xlink:href="#ArialMT-101"/>
       <use x="122.314453" xlink:href="#ArialMT-108"/>
       <use x="144.53125" xlink:href="#ArialMT-111"/>
       <use x="200.146484" xlink:href="#ArialMT-119"/>
       <use x="272.363281" xlink:href="#ArialMT-32"/>
       <use x="300.146484" xlink:href="#ArialMT-80"/>
       <use x="366.845703" xlink:href="#ArialMT-111"/>
       <use x="422.460938" xlink:href="#ArialMT-118"/>
       <use x="472.460938" xlink:href="#ArialMT-101"/>
       <use x="528.076172" xlink:href="#ArialMT-114"/>
       <use x="561.376953" xlink:href="#ArialMT-116"/>
       <use x="589.160156" xlink:href="#ArialMT-121"/>
       <use x="639.160156" xlink:href="#ArialMT-32"/>
       <use x="666.943359" xlink:href="#ArialMT-76"/>
       <use x="722.558594" xlink:href="#ArialMT-101"/>
       <use x="778.173828" xlink:href="#ArialMT-118"/>
       <use x="828.173828" xlink:href="#ArialMT-101"/>
       <use x="883.789062" xlink:href="#ArialMT-108"/>
      </g>
     </g>
    </g>
    <g id="text_3">
     <!-- Poverty Status (X2POVERTY) -->
     <g style="fill:#262626;" transform="translate(351.144375 553.441875)scale(0.12 -0.12)">
      <defs>
       <path d="M 4.5 23 
L 13.421875 23.78125 
Q 14.0625 18.40625 16.375 14.96875 
Q 18.703125 11.53125 23.578125 9.40625 
Q 28.46875 7.28125 34.578125 7.28125 
Q 39.984375 7.28125 44.140625 8.890625 
Q 48.296875 10.5 50.3125 13.296875 
Q 52.34375 16.109375 52.34375 19.4375 
Q 52.34375 22.796875 50.390625 25.3125 
Q 48.4375 27.828125 43.953125 29.546875 
Q 41.0625 30.671875 31.203125 33.03125 
Q 21.34375 35.40625 17.390625 37.5 
Q 12.25 40.1875 9.734375 44.15625 
Q 7.234375 48.140625 7.234375 53.078125 
Q 7.234375 58.5 10.296875 63.203125 
Q 13.375 67.921875 19.28125 70.359375 
Q 25.203125 72.796875 32.421875 72.796875 
Q 40.375 72.796875 46.453125 70.234375 
Q 52.546875 67.671875 55.8125 62.6875 
Q 59.078125 57.71875 59.328125 51.421875 
L 50.25 50.734375 
Q 49.515625 57.515625 45.28125 60.984375 
Q 41.0625 64.453125 32.8125 64.453125 
Q 24.21875 64.453125 20.28125 61.296875 
Q 16.359375 58.15625 16.359375 53.71875 
Q 16.359375 49.859375 19.140625 47.359375 
Q 21.875 44.875 33.421875 42.265625 
Q 44.96875 39.65625 49.265625 37.703125 
Q 55.515625 34.8125 58.484375 30.390625 
Q 61.46875 25.984375 61.46875 20.21875 
Q 61.46875 14.5 58.203125 9.4375 
Q 54.9375 4.390625 48.796875 1.578125 
Q 42.671875 -1.21875 35.015625 -1.21875 
Q 25.296875 -1.21875 18.71875 1.609375 
Q 12.15625 4.4375 8.421875 10.125 
Q 4.6875 15.828125 4.5 23 
z
" id="ArialMT-83"/>
       <path d="M 40.4375 6.390625 
Q 35.546875 2.25 31.03125 0.53125 
Q 26.515625 -1.171875 21.34375 -1.171875 
Q 12.796875 -1.171875 8.203125 3 
Q 3.609375 7.171875 3.609375 13.671875 
Q 3.609375 17.484375 5.34375 20.625 
Q 7.078125 23.78125 9.890625 25.6875 
Q 12.703125 27.59375 16.21875 28.5625 
Q 18.796875 29.25 24.03125 29.890625 
Q 34.671875 31.15625 39.703125 32.90625 
Q 39.75 34.71875 39.75 35.203125 
Q 39.75 40.578125 37.25 42.78125 
Q 33.890625 45.75 27.25 45.75 
Q 21.046875 45.75 18.09375 43.578125 
Q 15.140625 41.40625 13.71875 35.890625 
L 5.125 37.0625 
Q 6.296875 42.578125 8.984375 45.96875 
Q 11.671875 49.359375 16.75 51.1875 
Q 21.828125 53.03125 28.515625 53.03125 
Q 35.15625 53.03125 39.296875 51.46875 
Q 43.453125 49.90625 45.40625 47.53125 
Q 47.359375 45.171875 48.140625 41.546875 
Q 48.578125 39.3125 48.578125 33.453125 
L 48.578125 21.734375 
Q 48.578125 9.46875 49.140625 6.21875 
Q 49.703125 2.984375 51.375 0 
L 42.1875 0 
Q 40.828125 2.734375 40.4375 6.390625 
z
M 39.703125 26.03125 
Q 34.90625 24.078125 25.34375 22.703125 
Q 19.921875 21.921875 17.671875 20.9375 
Q 15.4375 19.96875 14.203125 18.09375 
Q 12.984375 16.21875 12.984375 13.921875 
Q 12.984375 10.40625 15.640625 8.0625 
Q 18.3125 5.71875 23.4375 5.71875 
Q 28.515625 5.71875 32.46875 7.9375 
Q 36.421875 10.15625 38.28125 14.015625 
Q 39.703125 17 39.703125 22.796875 
z
" id="ArialMT-97"/>
       <path d="M 40.578125 0 
L 40.578125 7.625 
Q 34.515625 -1.171875 24.125 -1.171875 
Q 19.53125 -1.171875 15.546875 0.578125 
Q 11.578125 2.34375 9.640625 5 
Q 7.71875 7.671875 6.9375 11.53125 
Q 6.390625 14.109375 6.390625 19.734375 
L 6.390625 51.859375 
L 15.1875 51.859375 
L 15.1875 23.09375 
Q 15.1875 16.21875 15.71875 13.8125 
Q 16.546875 10.359375 19.234375 8.375 
Q 21.921875 6.390625 25.875 6.390625 
Q 29.828125 6.390625 33.296875 8.421875 
Q 36.765625 10.453125 38.203125 13.9375 
Q 39.65625 17.4375 39.65625 24.078125 
L 39.65625 51.859375 
L 48.4375 51.859375 
L 48.4375 0 
z
" id="ArialMT-117"/>
       <path d="M 3.078125 15.484375 
L 11.765625 16.84375 
Q 12.5 11.625 15.84375 8.84375 
Q 19.1875 6.0625 25.203125 6.0625 
Q 31.25 6.0625 34.171875 8.515625 
Q 37.109375 10.984375 37.109375 14.3125 
Q 37.109375 17.28125 34.515625 19 
Q 32.71875 20.171875 25.53125 21.96875 
Q 15.875 24.421875 12.140625 26.203125 
Q 8.40625 27.984375 6.46875 31.125 
Q 4.546875 34.28125 4.546875 38.09375 
Q 4.546875 41.546875 6.125 44.5 
Q 7.71875 47.46875 10.453125 49.421875 
Q 12.5 50.921875 16.03125 51.96875 
Q 19.578125 53.03125 23.640625 53.03125 
Q 29.734375 53.03125 34.34375 51.265625 
Q 38.96875 49.515625 41.15625 46.5 
Q 43.359375 43.5 44.1875 38.484375 
L 35.59375 37.3125 
Q 35.015625 41.3125 32.203125 43.546875 
Q 29.390625 45.796875 24.265625 45.796875 
Q 18.21875 45.796875 15.625 43.796875 
Q 13.03125 41.796875 13.03125 39.109375 
Q 13.03125 37.40625 14.109375 36.03125 
Q 15.1875 34.625 17.484375 33.6875 
Q 18.796875 33.203125 25.25 31.453125 
Q 34.578125 28.953125 38.25 27.359375 
Q 41.9375 25.78125 44.03125 22.75 
Q 46.140625 19.734375 46.140625 15.234375 
Q 46.140625 10.84375 43.578125 6.953125 
Q 41.015625 3.078125 36.171875 0.953125 
Q 31.34375 -1.171875 25.25 -1.171875 
Q 15.140625 -1.171875 9.84375 3.03125 
Q 4.546875 7.234375 3.078125 15.484375 
z
" id="ArialMT-115"/>
       <path d="M 23.390625 -21.046875 
Q 16.109375 -11.859375 11.078125 0.4375 
Q 6.0625 12.75 6.0625 25.921875 
Q 6.0625 37.546875 9.8125 48.1875 
Q 14.203125 60.546875 23.390625 72.796875 
L 29.6875 72.796875 
Q 23.78125 62.640625 21.875 58.296875 
Q 18.890625 51.5625 17.1875 44.234375 
Q 15.09375 35.109375 15.09375 25.875 
Q 15.09375 2.390625 29.6875 -21.046875 
z
" id="ArialMT-40"/>
       <path d="M 0.4375 0 
L 28.125 37.3125 
L 3.71875 71.578125 
L 14.984375 71.578125 
L 27.984375 53.21875 
Q 32.03125 47.515625 33.734375 44.4375 
Q 36.140625 48.34375 39.40625 52.59375 
L 53.8125 71.578125 
L 64.109375 71.578125 
L 38.96875 37.84375 
L 66.0625 0 
L 54.34375 0 
L 36.328125 25.53125 
Q 34.8125 27.734375 33.203125 30.328125 
Q 30.8125 26.421875 29.78125 24.953125 
L 11.8125 0 
z
" id="ArialMT-88"/>
       <path d="M 50.34375 8.453125 
L 50.34375 0 
L 3.03125 0 
Q 2.9375 3.171875 4.046875 6.109375 
Q 5.859375 10.9375 9.828125 15.625 
Q 13.8125 20.3125 21.34375 26.46875 
Q 33.015625 36.03125 37.109375 41.625 
Q 41.21875 47.21875 41.21875 52.203125 
Q 41.21875 57.421875 37.46875 61 
Q 33.734375 64.59375 27.734375 64.59375 
Q 21.390625 64.59375 17.578125 60.78125 
Q 13.765625 56.984375 13.71875 50.25 
L 4.6875 51.171875 
Q 5.609375 61.28125 11.65625 66.578125 
Q 17.71875 71.875 27.9375 71.875 
Q 38.234375 71.875 44.234375 66.15625 
Q 50.25 60.453125 50.25 52 
Q 50.25 47.703125 48.484375 43.546875 
Q 46.734375 39.40625 42.65625 34.8125 
Q 38.578125 30.21875 29.109375 22.21875 
Q 21.1875 15.578125 18.9375 13.203125 
Q 16.703125 10.84375 15.234375 8.453125 
z
" id="ArialMT-50"/>
       <path d="M 4.828125 34.859375 
Q 4.828125 52.6875 14.390625 62.765625 
Q 23.96875 72.859375 39.109375 72.859375 
Q 49.03125 72.859375 56.984375 68.109375 
Q 64.9375 63.375 69.109375 54.90625 
Q 73.296875 46.4375 73.296875 35.6875 
Q 73.296875 24.8125 68.890625 16.21875 
Q 64.5 7.625 56.4375 3.203125 
Q 48.390625 -1.21875 39.0625 -1.21875 
Q 28.953125 -1.21875 20.984375 3.65625 
Q 13.03125 8.546875 8.921875 16.984375 
Q 4.828125 25.4375 4.828125 34.859375 
z
M 14.59375 34.71875 
Q 14.59375 21.78125 21.546875 14.328125 
Q 28.515625 6.890625 39.015625 6.890625 
Q 49.703125 6.890625 56.609375 14.40625 
Q 63.53125 21.921875 63.53125 35.75 
Q 63.53125 44.484375 60.578125 51 
Q 57.625 57.515625 51.921875 61.109375 
Q 46.234375 64.703125 39.15625 64.703125 
Q 29.109375 64.703125 21.84375 57.78125 
Q 14.59375 50.875 14.59375 34.71875 
z
" id="ArialMT-79"/>
       <path d="M 28.171875 0 
L 0.4375 71.578125 
L 10.6875 71.578125 
L 29.296875 19.578125 
Q 31.546875 13.328125 33.0625 7.859375 
Q 34.71875 13.71875 36.921875 19.578125 
L 56.25 71.578125 
L 65.921875 71.578125 
L 37.890625 0 
z
" id="ArialMT-86"/>
       <path d="M 7.90625 0 
L 7.90625 71.578125 
L 59.671875 71.578125 
L 59.671875 63.140625 
L 17.390625 63.140625 
L 17.390625 41.21875 
L 56.984375 41.21875 
L 56.984375 32.8125 
L 17.390625 32.8125 
L 17.390625 8.453125 
L 61.328125 8.453125 
L 61.328125 0 
z
" id="ArialMT-69"/>
       <path d="M 7.859375 0 
L 7.859375 71.578125 
L 39.59375 71.578125 
Q 49.171875 71.578125 54.140625 69.640625 
Q 59.125 67.71875 62.109375 62.828125 
Q 65.09375 57.953125 65.09375 52.046875 
Q 65.09375 44.4375 60.15625 39.203125 
Q 55.21875 33.984375 44.921875 32.5625 
Q 48.6875 30.765625 50.640625 29 
Q 54.78125 25.203125 58.5 19.484375 
L 70.953125 0 
L 59.03125 0 
L 49.5625 14.890625 
Q 45.40625 21.34375 42.71875 24.75 
Q 40.046875 28.171875 37.921875 29.53125 
Q 35.796875 30.90625 33.59375 31.453125 
Q 31.984375 31.78125 28.328125 31.78125 
L 17.328125 31.78125 
L 17.328125 0 
z
M 17.328125 39.984375 
L 37.703125 39.984375 
Q 44.1875 39.984375 47.84375 41.328125 
Q 51.515625 42.671875 53.421875 45.625 
Q 55.328125 48.578125 55.328125 52.046875 
Q 55.328125 57.125 51.640625 60.390625 
Q 47.953125 63.671875 39.984375 63.671875 
L 17.328125 63.671875 
z
" id="ArialMT-82"/>
       <path d="M 25.921875 0 
L 25.921875 63.140625 
L 2.34375 63.140625 
L 2.34375 71.578125 
L 59.078125 71.578125 
L 59.078125 63.140625 
L 35.40625 63.140625 
L 35.40625 0 
z
" id="ArialMT-84"/>
       <path d="M 27.875 0 
L 27.875 30.328125 
L 0.296875 71.578125 
L 11.8125 71.578125 
L 25.921875 50 
Q 29.828125 43.953125 33.203125 37.890625 
Q 36.421875 43.5 41.015625 50.53125 
L 54.890625 71.578125 
L 65.921875 71.578125 
L 37.359375 30.328125 
L 37.359375 0 
z
" id="ArialMT-89"/>
       <path d="M 12.359375 -21.046875 
L 6.0625 -21.046875 
Q 20.65625 2.390625 20.65625 25.875 
Q 20.65625 35.0625 18.5625 44.09375 
Q 16.890625 51.421875 13.921875 58.15625 
Q 12.015625 62.546875 6.0625 72.796875 
L 12.359375 72.796875 
Q 21.53125 60.546875 25.921875 48.1875 
Q 29.6875 37.546875 29.6875 25.921875 
Q 29.6875 12.75 24.625 0.4375 
Q 19.578125 -11.859375 12.359375 -21.046875 
z
" id="ArialMT-41"/>
      </defs>
      <use xlink:href="#ArialMT-80"/>
      <use x="66.699219" xlink:href="#ArialMT-111"/>
      <use x="122.314453" xlink:href="#ArialMT-118"/>
      <use x="172.314453" xlink:href="#ArialMT-101"/>
      <use x="227.929688" xlink:href="#ArialMT-114"/>
      <use x="261.230469" xlink:href="#ArialMT-116"/>
      <use x="289.013672" xlink:href="#ArialMT-121"/>
      <use x="339.013672" xlink:href="#ArialMT-32"/>
      <use x="366.796875" xlink:href="#ArialMT-83"/>
      <use x="433.496094" xlink:href="#ArialMT-116"/>
      <use x="461.279297" xlink:href="#ArialMT-97"/>
      <use x="516.894531" xlink:href="#ArialMT-116"/>
      <use x="544.677734" xlink:href="#ArialMT-117"/>
      <use x="600.292969" xlink:href="#ArialMT-115"/>
      <use x="650.292969" xlink:href="#ArialMT-32"/>
      <use x="678.076172" xlink:href="#ArialMT-40"/>
      <use x="711.376953" xlink:href="#ArialMT-88"/>
      <use x="778.076172" xlink:href="#ArialMT-50"/>
      <use x="833.691406" xlink:href="#ArialMT-80"/>
      <use x="900.390625" xlink:href="#ArialMT-79"/>
      <use x="978.173828" xlink:href="#ArialMT-86"/>
      <use x="1044.873047" xlink:href="#ArialMT-69"/>
      <use x="1111.572266" xlink:href="#ArialMT-82"/>
      <use x="1182.039062" xlink:href="#ArialMT-84"/>
      <use x="1243.123047" xlink:href="#ArialMT-89"/>
      <use x="1309.822266" xlink:href="#ArialMT-41"/>
     </g>
    </g>
   </g>
   <g id="matplotlib.axis_2">
    <g id="ytick_1">
     <g id="line2d_1">
      <path clip-path="url(#pf2139d20fb)" d="M 105.3 504.461305 
L 758.16 504.461305 
" style="fill:none;stroke:#ffffff;stroke-linecap:round;"/>
     </g>
     <g id="text_4">
      <!-- −3 -->
      <g style="fill:#262626;" transform="translate(83.258281 508.398102)scale(0.11 -0.11)">
       <defs>
        <path d="M 52.828125 31.203125 
L 5.5625 31.203125 
L 5.5625 39.40625 
L 52.828125 39.40625 
z
" id="ArialMT-8722"/>
        <path d="M 4.203125 18.890625 
L 12.984375 20.0625 
Q 14.5 12.59375 18.140625 9.296875 
Q 21.78125 6 27 6 
Q 33.203125 6 37.46875 10.296875 
Q 41.75 14.59375 41.75 20.953125 
Q 41.75 27 37.796875 30.921875 
Q 33.84375 34.859375 27.734375 34.859375 
Q 25.25 34.859375 21.53125 33.890625 
L 22.515625 41.609375 
Q 23.390625 41.5 23.921875 41.5 
Q 29.546875 41.5 34.03125 44.421875 
Q 38.53125 47.359375 38.53125 53.46875 
Q 38.53125 58.296875 35.25 61.46875 
Q 31.984375 64.65625 26.8125 64.65625 
Q 21.6875 64.65625 18.265625 61.421875 
Q 14.84375 58.203125 13.875 51.765625 
L 5.078125 53.328125 
Q 6.6875 62.15625 12.390625 67.015625 
Q 18.109375 71.875 26.609375 71.875 
Q 32.46875 71.875 37.390625 69.359375 
Q 42.328125 66.84375 44.9375 62.5 
Q 47.5625 58.15625 47.5625 53.265625 
Q 47.5625 48.640625 45.0625 44.828125 
Q 42.578125 41.015625 37.703125 38.765625 
Q 44.046875 37.3125 47.5625 32.6875 
Q 51.078125 28.078125 51.078125 21.140625 
Q 51.078125 11.765625 44.234375 5.25 
Q 37.40625 -1.265625 26.953125 -1.265625 
Q 17.53125 -1.265625 11.296875 4.34375 
Q 5.078125 9.96875 4.203125 18.890625 
z
" id="ArialMT-51"/>
       </defs>
       <use xlink:href="#ArialMT-8722"/>
       <use x="58.398438" xlink:href="#ArialMT-51"/>
      </g>
     </g>
    </g>
    <g id="ytick_2">
     <g id="line2d_2">
      <path clip-path="url(#pf2139d20fb)" d="M 105.3 451.762885 
L 758.16 451.762885 
" style="fill:none;stroke:#ffffff;stroke-linecap:round;"/>
     </g>
     <g id="text_5">
      <!-- −2 -->
      <g style="fill:#262626;" transform="translate(83.258281 455.699681)scale(0.11 -0.11)">
       <use xlink:href="#ArialMT-8722"/>
       <use x="58.398438" xlink:href="#ArialMT-50"/>
      </g>
     </g>
    </g>
    <g id="ytick_3">
     <g id="line2d_3">
      <path clip-path="url(#pf2139d20fb)" d="M 105.3 399.064464 
L 758.16 399.064464 
" style="fill:none;stroke:#ffffff;stroke-linecap:round;"/>
     </g>
     <g id="text_6">
      <!-- −1 -->
      <g style="fill:#262626;" transform="translate(83.258281 403.001261)scale(0.11 -0.11)">
       <defs>
        <path d="M 37.25 0 
L 28.46875 0 
L 28.46875 56 
Q 25.296875 52.984375 20.140625 49.953125 
Q 14.984375 46.921875 10.890625 45.40625 
L 10.890625 53.90625 
Q 18.265625 57.375 23.78125 62.296875 
Q 29.296875 67.234375 31.59375 71.875 
L 37.25 71.875 
z
" id="ArialMT-49"/>
       </defs>
       <use xlink:href="#ArialMT-8722"/>
       <use x="58.398438" xlink:href="#ArialMT-49"/>
      </g>
     </g>
    </g>
    <g id="ytick_4">
     <g id="line2d_4">
      <path clip-path="url(#pf2139d20fb)" d="M 105.3 346.366043 
L 758.16 346.366043 
" style="fill:none;stroke:#ffffff;stroke-linecap:round;"/>
     </g>
     <g id="text_7">
      <!-- 0 -->
      <g style="fill:#262626;" transform="translate(89.682969 350.30284)scale(0.11 -0.11)">
       <defs>
        <path d="M 4.15625 35.296875 
Q 4.15625 48 6.765625 55.734375 
Q 9.375 63.484375 14.515625 67.671875 
Q 19.671875 71.875 27.484375 71.875 
Q 33.25 71.875 37.59375 69.546875 
Q 41.9375 67.234375 44.765625 62.859375 
Q 47.609375 58.5 49.21875 52.21875 
Q 50.828125 45.953125 50.828125 35.296875 
Q 50.828125 22.703125 48.234375 14.96875 
Q 45.65625 7.234375 40.5 3 
Q 35.359375 -1.21875 27.484375 -1.21875 
Q 17.140625 -1.21875 11.234375 6.203125 
Q 4.15625 15.140625 4.15625 35.296875 
z
M 13.1875 35.296875 
Q 13.1875 17.671875 17.3125 11.828125 
Q 21.4375 6 27.484375 6 
Q 33.546875 6 37.671875 11.859375 
Q 41.796875 17.71875 41.796875 35.296875 
Q 41.796875 52.984375 37.671875 58.78125 
Q 33.546875 64.59375 27.390625 64.59375 
Q 21.34375 64.59375 17.71875 59.46875 
Q 13.1875 52.9375 13.1875 35.296875 
z
" id="ArialMT-48"/>
       </defs>
       <use xlink:href="#ArialMT-48"/>
      </g>
     </g>
    </g>
    <g id="ytick_5">
     <g id="line2d_5">
      <path clip-path="url(#pf2139d20fb)" d="M 105.3 293.667622 
L 758.16 293.667622 
" style="fill:none;stroke:#ffffff;stroke-linecap:round;"/>
     </g>
     <g id="text_8">
      <!-- 1 -->
      <g style="fill:#262626;" transform="translate(89.682969 297.604419)scale(0.11 -0.11)">
       <use xlink:href="#ArialMT-49"/>
      </g>
     </g>
    </g>
    <g id="ytick_6">
     <g id="line2d_6">
      <path clip-path="url(#pf2139d20fb)" d="M 105.3 240.969201 
L 758.16 240.969201 
" style="fill:none;stroke:#ffffff;stroke-linecap:round;"/>
     </g>
     <g id="text_9">
      <!-- 2 -->
      <g style="fill:#262626;" transform="translate(89.682969 244.905998)scale(0.11 -0.11)">
       <use xlink:href="#ArialMT-50"/>
      </g>
     </g>
    </g>
    <g id="ytick_7">
     <g id="line2d_7">
      <path clip-path="url(#pf2139d20fb)" d="M 105.3 188.27078 
L 758.16 188.27078 
" style="fill:none;stroke:#ffffff;stroke-linecap:round;"/>
     </g>
     <g id="text_10">
      <!-- 3 -->
      <g style="fill:#262626;" transform="translate(89.682969 192.207577)scale(0.11 -0.11)">
       <use xlink:href="#ArialMT-51"/>
      </g>
     </g>
    </g>
    <g id="ytick_8">
     <g id="line2d_8">
      <path clip-path="url(#pf2139d20fb)" d="M 105.3 135.572359 
L 758.16 135.572359 
" style="fill:none;stroke:#ffffff;stroke-linecap:round;"/>
     </g>
     <g id="text_11">
      <!-- 4 -->
      <g style="fill:#262626;" transform="translate(89.682969 139.509156)scale(0.11 -0.11)">
       <defs>
        <path d="M 32.328125 0 
L 32.328125 17.140625 
L 1.265625 17.140625 
L 1.265625 25.203125 
L 33.9375 71.578125 
L 41.109375 71.578125 
L 41.109375 25.203125 
L 50.78125 25.203125 
L 50.78125 17.140625 
L 41.109375 17.140625 
L 41.109375 0 
z
M 32.328125 25.203125 
L 32.328125 57.46875 
L 9.90625 25.203125 
z
" id="ArialMT-52"/>
       </defs>
       <use xlink:href="#ArialMT-52"/>
      </g>
     </g>
    </g>
    <g id="ytick_9">
     <g id="line2d_9">
      <path clip-path="url(#pf2139d20fb)" d="M 105.3 82.873938 
L 758.16 82.873938 
" style="fill:none;stroke:#ffffff;stroke-linecap:round;"/>
     </g>
     <g id="text_12">
      <!-- 5 -->
      <g style="fill:#262626;" transform="translate(89.682969 86.810735)scale(0.11 -0.11)">
       <defs>
        <path d="M 4.15625 18.75 
L 13.375 19.53125 
Q 14.40625 12.796875 18.140625 9.390625 
Q 21.875 6 27.15625 6 
Q 33.5 6 37.890625 10.78125 
Q 42.28125 15.578125 42.28125 23.484375 
Q 42.28125 31 38.0625 35.34375 
Q 33.84375 39.703125 27 39.703125 
Q 22.75 39.703125 19.328125 37.765625 
Q 15.921875 35.84375 13.96875 32.765625 
L 5.71875 33.84375 
L 12.640625 70.609375 
L 48.25 70.609375 
L 48.25 62.203125 
L 19.671875 62.203125 
L 15.828125 42.96875 
Q 22.265625 47.46875 29.34375 47.46875 
Q 38.71875 47.46875 45.15625 40.96875 
Q 51.609375 34.46875 51.609375 24.265625 
Q 51.609375 14.546875 45.953125 7.46875 
Q 39.0625 -1.21875 27.15625 -1.21875 
Q 17.390625 -1.21875 11.203125 4.25 
Q 5.03125 9.71875 4.15625 18.75 
z
" id="ArialMT-53"/>
       </defs>
       <use xlink:href="#ArialMT-53"/>
      </g>
     </g>
    </g>
    <g id="text_13">
     <!-- Mathematics theta score (X2TXMTH) -->
     <g style="fill:#262626;" transform="translate(76.732656 395.252025)rotate(-90)scale(0.12 -0.12)">
      <defs>
       <path d="M 7.421875 0 
L 7.421875 71.578125 
L 21.6875 71.578125 
L 38.625 20.90625 
Q 40.96875 13.8125 42.046875 10.296875 
Q 43.265625 14.203125 45.84375 21.78125 
L 62.984375 71.578125 
L 75.734375 71.578125 
L 75.734375 0 
L 66.609375 0 
L 66.609375 59.90625 
L 45.796875 0 
L 37.25 0 
L 16.546875 60.9375 
L 16.546875 0 
z
" id="ArialMT-77"/>
       <path d="M 6.59375 0 
L 6.59375 71.578125 
L 15.375 71.578125 
L 15.375 45.90625 
Q 21.53125 53.03125 30.90625 53.03125 
Q 36.671875 53.03125 40.921875 50.75 
Q 45.171875 48.484375 47 44.484375 
Q 48.828125 40.484375 48.828125 32.859375 
L 48.828125 0 
L 40.046875 0 
L 40.046875 32.859375 
Q 40.046875 39.453125 37.1875 42.453125 
Q 34.328125 45.453125 29.109375 45.453125 
Q 25.203125 45.453125 21.75 43.421875 
Q 18.3125 41.40625 16.84375 37.9375 
Q 15.375 34.46875 15.375 28.375 
L 15.375 0 
z
" id="ArialMT-104"/>
       <path d="M 6.59375 0 
L 6.59375 51.859375 
L 14.453125 51.859375 
L 14.453125 44.578125 
Q 16.890625 48.390625 20.9375 50.703125 
Q 25 53.03125 30.171875 53.03125 
Q 35.9375 53.03125 39.625 50.640625 
Q 43.3125 48.25 44.828125 43.953125 
Q 50.984375 53.03125 60.84375 53.03125 
Q 68.5625 53.03125 72.703125 48.75 
Q 76.859375 44.484375 76.859375 35.59375 
L 76.859375 0 
L 68.109375 0 
L 68.109375 32.671875 
Q 68.109375 37.9375 67.25 40.25 
Q 66.40625 42.578125 64.15625 43.984375 
Q 61.921875 45.40625 58.890625 45.40625 
Q 53.421875 45.40625 49.796875 41.765625 
Q 46.1875 38.140625 46.1875 30.125 
L 46.1875 0 
L 37.40625 0 
L 37.40625 33.6875 
Q 37.40625 39.546875 35.25 42.46875 
Q 33.109375 45.40625 28.21875 45.40625 
Q 24.515625 45.40625 21.359375 43.453125 
Q 18.21875 41.5 16.796875 37.734375 
Q 15.375 33.984375 15.375 26.90625 
L 15.375 0 
z
" id="ArialMT-109"/>
       <path d="M 6.640625 61.46875 
L 6.640625 71.578125 
L 15.4375 71.578125 
L 15.4375 61.46875 
z
M 6.640625 0 
L 6.640625 51.859375 
L 15.4375 51.859375 
L 15.4375 0 
z
" id="ArialMT-105"/>
       <path d="M 40.4375 19 
L 49.078125 17.875 
Q 47.65625 8.9375 41.8125 3.875 
Q 35.984375 -1.171875 27.484375 -1.171875 
Q 16.84375 -1.171875 10.375 5.78125 
Q 3.90625 12.75 3.90625 25.734375 
Q 3.90625 34.125 6.6875 40.421875 
Q 9.46875 46.734375 15.15625 49.875 
Q 20.84375 53.03125 27.546875 53.03125 
Q 35.984375 53.03125 41.359375 48.75 
Q 46.734375 44.484375 48.25 36.625 
L 39.703125 35.296875 
Q 38.484375 40.53125 35.375 43.15625 
Q 32.28125 45.796875 27.875 45.796875 
Q 21.234375 45.796875 17.078125 41.03125 
Q 12.9375 36.28125 12.9375 25.984375 
Q 12.9375 15.53125 16.9375 10.796875 
Q 20.953125 6.0625 27.390625 6.0625 
Q 32.5625 6.0625 36.03125 9.234375 
Q 39.5 12.40625 40.4375 19 
z
" id="ArialMT-99"/>
       <path d="M 8.015625 0 
L 8.015625 71.578125 
L 17.484375 71.578125 
L 17.484375 42.1875 
L 54.6875 42.1875 
L 54.6875 71.578125 
L 64.15625 71.578125 
L 64.15625 0 
L 54.6875 0 
L 54.6875 33.734375 
L 17.484375 33.734375 
L 17.484375 0 
z
" id="ArialMT-72"/>
      </defs>
      <use xlink:href="#ArialMT-77"/>
      <use x="83.300781" xlink:href="#ArialMT-97"/>
      <use x="138.916016" xlink:href="#ArialMT-116"/>
      <use x="166.699219" xlink:href="#ArialMT-104"/>
      <use x="222.314453" xlink:href="#ArialMT-101"/>
      <use x="277.929688" xlink:href="#ArialMT-109"/>
      <use x="361.230469" xlink:href="#ArialMT-97"/>
      <use x="416.845703" xlink:href="#ArialMT-116"/>
      <use x="444.628906" xlink:href="#ArialMT-105"/>
      <use x="466.845703" xlink:href="#ArialMT-99"/>
      <use x="516.845703" xlink:href="#ArialMT-115"/>
      <use x="566.845703" xlink:href="#ArialMT-32"/>
      <use x="594.628906" xlink:href="#ArialMT-116"/>
      <use x="622.412109" xlink:href="#ArialMT-104"/>
      <use x="678.027344" xlink:href="#ArialMT-101"/>
      <use x="733.642578" xlink:href="#ArialMT-116"/>
      <use x="761.425781" xlink:href="#ArialMT-97"/>
      <use x="817.041016" xlink:href="#ArialMT-32"/>
      <use x="844.824219" xlink:href="#ArialMT-115"/>
      <use x="894.824219" xlink:href="#ArialMT-99"/>
      <use x="944.824219" xlink:href="#ArialMT-111"/>
      <use x="1000.439453" xlink:href="#ArialMT-114"/>
      <use x="1033.740234" xlink:href="#ArialMT-101"/>
      <use x="1089.355469" xlink:href="#ArialMT-32"/>
      <use x="1117.138672" xlink:href="#ArialMT-40"/>
      <use x="1150.439453" xlink:href="#ArialMT-88"/>
      <use x="1217.138672" xlink:href="#ArialMT-50"/>
      <use x="1272.753906" xlink:href="#ArialMT-84"/>
      <use x="1333.837891" xlink:href="#ArialMT-88"/>
      <use x="1400.537109" xlink:href="#ArialMT-77"/>
      <use x="1483.837891" xlink:href="#ArialMT-84"/>
      <use x="1544.921875" xlink:href="#ArialMT-72"/>
      <use x="1617.138672" xlink:href="#ArialMT-41"/>
     </g>
    </g>
   </g>
   <g id="PolyCollection_1">
    <defs>
     <path d="M 268.520758 -94.864418 
L 268.509242 -94.864418 
L 268.501452 -98.992583 
L 268.48949 -103.120749 
L 268.475763 -107.248914 
L 268.462542 -111.377079 
L 268.443475 -115.505245 
L 268.391722 -119.63341 
L 268.248597 -123.761575 
L 267.919763 -127.88974 
L 267.293277 -132.017906 
L 266.284214 -136.146071 
L 264.877364 -140.274236 
L 263.132627 -144.402402 
L 261.159036 -148.530567 
L 259.080064 -152.658732 
L 256.985128 -156.786898 
L 254.885739 -160.915063 
L 252.73917 -165.043228 
L 250.522537 -169.171393 
L 248.248889 -173.299559 
L 245.924361 -177.427724 
L 243.552757 -181.555889 
L 241.15811 -185.684055 
L 238.702656 -189.81222 
L 235.983883 -193.940385 
L 232.749548 -198.06855 
L 229.029695 -202.196716 
L 225.330435 -206.324881 
L 222.383901 -210.453046 
L 220.634916 -214.581212 
L 219.981911 -218.709377 
L 220.000604 -222.837542 
L 220.316463 -226.965707 
L 220.675465 -231.093873 
L 220.679339 -235.222038 
L 219.560145 -239.350203 
L 216.336624 -243.478369 
L 210.284967 -247.606534 
L 201.340659 -251.734699 
L 190.18559 -255.862864 
L 178.090185 -259.99103 
L 166.606046 -264.119195 
L 157.095964 -268.24736 
L 150.269187 -272.375526 
L 146.107557 -276.503691 
L 144.246687 -280.631856 
L 144.336791 -284.760021 
L 146.031751 -288.888187 
L 148.878708 -293.016352 
L 152.483393 -297.144517 
L 156.815275 -301.272683 
L 162.269967 -305.400848 
L 169.397128 -309.529013 
L 178.487081 -313.657179 
L 189.233856 -317.785344 
L 200.629414 -321.913509 
L 211.119731 -326.041674 
L 218.919865 -330.16984 
L 222.458562 -334.298005 
L 221.014343 -338.42617 
L 215.314594 -342.554336 
L 207.533706 -346.682501 
L 200.444778 -350.810666 
L 196.236827 -354.938831 
L 195.791317 -359.066997 
L 198.747536 -363.195162 
L 204.079666 -367.323327 
L 210.701688 -371.451493 
L 217.787531 -375.579658 
L 224.778 -379.707823 
L 231.25998 -383.835988 
L 236.923835 -387.964154 
L 241.62003 -392.092319 
L 245.38306 -396.220484 
L 248.363029 -400.34865 
L 250.737825 -404.476815 
L 252.670161 -408.60498 
L 254.301389 -412.733145 
L 255.757225 -416.861311 
L 257.148415 -420.989476 
L 258.552081 -425.117641 
L 259.984065 -429.245807 
L 261.393795 -433.373972 
L 262.693917 -437.502137 
L 263.807579 -441.630302 
L 264.705975 -445.758468 
L 265.415468 -449.886633 
L 265.994329 -454.014798 
L 266.497892 -458.142964 
L 266.95396 -462.271129 
L 267.361727 -466.399294 
L 267.708438 -470.52746 
L 267.984269 -474.655625 
L 268.186802 -478.78379 
L 268.322057 -482.911955 
L 268.404769 -487.040121 
L 268.453406 -491.168286 
L 268.482453 -495.296451 
L 268.499658 -499.424617 
L 268.508872 -503.552782 
L 268.521128 -503.552782 
L 268.521128 -503.552782 
L 268.530342 -499.424617 
L 268.547547 -495.296451 
L 268.576594 -491.168286 
L 268.625231 -487.040121 
L 268.707943 -482.911955 
L 268.843198 -478.78379 
L 269.045731 -474.655625 
L 269.321562 -470.52746 
L 269.668273 -466.399294 
L 270.07604 -462.271129 
L 270.532108 -458.142964 
L 271.035671 -454.014798 
L 271.614532 -449.886633 
L 272.324025 -445.758468 
L 273.222421 -441.630302 
L 274.336083 -437.502137 
L 275.636205 -433.373972 
L 277.045935 -429.245807 
L 278.477919 -425.117641 
L 279.881585 -420.989476 
L 281.272775 -416.861311 
L 282.728611 -412.733145 
L 284.359839 -408.60498 
L 286.292175 -404.476815 
L 288.666971 -400.34865 
L 291.64694 -396.220484 
L 295.40997 -392.092319 
L 300.106165 -387.964154 
L 305.77002 -383.835988 
L 312.252 -379.707823 
L 319.242469 -375.579658 
L 326.328312 -371.451493 
L 332.950334 -367.323327 
L 338.282464 -363.195162 
L 341.238683 -359.066997 
L 340.793173 -354.938831 
L 336.585222 -350.810666 
L 329.496294 -346.682501 
L 321.715406 -342.554336 
L 316.015657 -338.42617 
L 314.571438 -334.298005 
L 318.110135 -330.16984 
L 325.910269 -326.041674 
L 336.400586 -321.913509 
L 347.796144 -317.785344 
L 358.542919 -313.657179 
L 367.632872 -309.529013 
L 374.760033 -305.400848 
L 380.214725 -301.272683 
L 384.546607 -297.144517 
L 388.151292 -293.016352 
L 390.998249 -288.888187 
L 392.693209 -284.760021 
L 392.783313 -280.631856 
L 390.922443 -276.503691 
L 386.760813 -272.375526 
L 379.934036 -268.24736 
L 370.423954 -264.119195 
L 358.939815 -259.99103 
L 346.84441 -255.862864 
L 335.689341 -251.734699 
L 326.745033 -247.606534 
L 320.693376 -243.478369 
L 317.469855 -239.350203 
L 316.350661 -235.222038 
L 316.354535 -231.093873 
L 316.713537 -226.965707 
L 317.029396 -222.837542 
L 317.048089 -218.709377 
L 316.395084 -214.581212 
L 314.646099 -210.453046 
L 311.699565 -206.324881 
L 308.000305 -202.196716 
L 304.280452 -198.06855 
L 301.046117 -193.940385 
L 298.327344 -189.81222 
L 295.87189 -185.684055 
L 293.477243 -181.555889 
L 291.105639 -177.427724 
L 288.781111 -173.299559 
L 286.507463 -169.171393 
L 284.29083 -165.043228 
L 282.144261 -160.915063 
L 280.044872 -156.786898 
L 277.949936 -152.658732 
L 275.870964 -148.530567 
L 273.897373 -144.402402 
L 272.152636 -140.274236 
L 270.745786 -136.146071 
L 269.736723 -132.017906 
L 269.110237 -127.88974 
L 268.781403 -123.761575 
L 268.638278 -119.63341 
L 268.586525 -115.505245 
L 268.567458 -111.377079 
L 268.554237 -107.248914 
L 268.54051 -103.120749 
L 268.528548 -98.992583 
L 268.520758 -94.864418 
z
" id="m957d9bc6e5" style="stroke:#4c4c4c;stroke-width:1.5;"/>
    </defs>
    <g clip-path="url(#pf2139d20fb)">
     <use style="fill:#5875a4;stroke:#4c4c4c;stroke-width:1.5;" x="0" xlink:href="#m957d9bc6e5" y="595.44"/>
    </g>
   </g>
   <g id="PolyCollection_2">
    <defs>
     <path d="M 594.999346 -108.191507 
L 594.890654 -108.191507 
L 594.813242 -112.139493 
L 594.648966 -116.087479 
L 594.326619 -120.035465 
L 593.741264 -123.983452 
L 592.757245 -127.931438 
L 591.224868 -131.879424 
L 589.010768 -135.82741 
L 586.034223 -139.775396 
L 582.29651 -143.723382 
L 577.892017 -147.671369 
L 572.997565 -151.619355 
L 567.844778 -155.567341 
L 562.68398 -159.515327 
L 557.746368 -163.463313 
L 553.208659 -167.4113 
L 549.165771 -171.359286 
L 545.619957 -175.307272 
L 542.490502 -179.255258 
L 539.635076 -183.203244 
L 536.867811 -187.15123 
L 533.976229 -191.099217 
L 530.766072 -195.047203 
L 527.159268 -198.995189 
L 523.315186 -202.943175 
L 519.681263 -206.891161 
L 516.883285 -210.839148 
L 515.465094 -214.787134 
L 515.609914 -218.73512 
L 517.008082 -222.683106 
L 518.94227 -226.631092 
L 520.521721 -230.579079 
L 520.927509 -234.527065 
L 519.571077 -238.475051 
L 516.158636 -242.423037 
L 510.706912 -246.371023 
L 503.539362 -250.319009 
L 495.249932 -254.266996 
L 486.615508 -258.214982 
L 478.475588 -262.162968 
L 471.625803 -266.110954 
L 466.750266 -270.05894 
L 464.373 -274.006927 
L 464.798568 -277.954913 
L 468.049699 -281.902899 
L 473.84801 -285.850885 
L 481.674057 -289.798871 
L 490.890869 -293.746857 
L 500.873073 -297.694844 
L 511.089815 -301.64283 
L 521.129941 -305.590816 
L 530.688763 -309.538802 
L 539.53586 -313.486788 
L 547.470348 -317.434775 
L 554.27289 -321.382761 
L 559.684445 -325.330747 
L 563.450413 -329.278733 
L 565.437186 -333.226719 
L 565.7679 -337.174705 
L 564.885514 -341.122692 
L 563.477857 -345.070678 
L 562.282396 -349.018664 
L 561.867376 -352.96665 
L 562.498324 -356.914636 
L 564.138006 -360.862623 
L 566.547655 -364.810609 
L 569.417275 -368.758595 
L 572.465295 -372.706581 
L 575.484015 -376.654567 
L 578.338758 -380.602553 
L 580.945691 -384.55054 
L 583.253752 -388.498526 
L 585.240996 -392.446512 
L 586.917032 -396.394498 
L 588.317965 -400.342484 
L 589.490538 -404.290471 
L 590.473991 -408.238457 
L 591.289624 -412.186443 
L 591.941775 -416.134429 
L 592.427928 -420.082415 
L 592.752536 -424.030402 
L 592.937894 -427.978388 
L 593.026613 -431.926374 
L 593.074474 -435.87436 
L 593.136873 -439.822346 
L 593.253889 -443.770332 
L 593.438937 -447.718319 
L 593.675771 -451.666305 
L 593.926879 -455.614291 
L 594.151127 -459.562277 
L 594.322218 -463.510263 
L 594.43795 -467.45825 
L 594.515841 -471.406236 
L 594.579484 -475.354222 
L 594.645131 -479.302208 
L 594.716056 -483.250194 
L 594.785733 -487.19818 
L 594.845209 -491.146167 
L 594.889035 -495.094153 
L 594.917005 -499.042139 
L 594.972995 -499.042139 
L 594.972995 -499.042139 
L 595.000965 -495.094153 
L 595.044791 -491.146167 
L 595.104267 -487.19818 
L 595.173944 -483.250194 
L 595.244869 -479.302208 
L 595.310516 -475.354222 
L 595.374159 -471.406236 
L 595.45205 -467.45825 
L 595.567782 -463.510263 
L 595.738873 -459.562277 
L 595.963121 -455.614291 
L 596.214229 -451.666305 
L 596.451063 -447.718319 
L 596.636111 -443.770332 
L 596.753127 -439.822346 
L 596.815526 -435.87436 
L 596.863387 -431.926374 
L 596.952106 -427.978388 
L 597.137464 -424.030402 
L 597.462072 -420.082415 
L 597.948225 -416.134429 
L 598.600376 -412.186443 
L 599.416009 -408.238457 
L 600.399462 -404.290471 
L 601.572035 -400.342484 
L 602.972968 -396.394498 
L 604.649004 -392.446512 
L 606.636248 -388.498526 
L 608.944309 -384.55054 
L 611.551242 -380.602553 
L 614.405985 -376.654567 
L 617.424705 -372.706581 
L 620.472725 -368.758595 
L 623.342345 -364.810609 
L 625.751994 -360.862623 
L 627.391676 -356.914636 
L 628.022624 -352.96665 
L 627.607604 -349.018664 
L 626.412143 -345.070678 
L 625.004486 -341.122692 
L 624.1221 -337.174705 
L 624.452814 -333.226719 
L 626.439587 -329.278733 
L 630.205555 -325.330747 
L 635.61711 -321.382761 
L 642.419652 -317.434775 
L 650.35414 -313.486788 
L 659.201237 -309.538802 
L 668.760059 -305.590816 
L 678.800185 -301.64283 
L 689.016927 -297.694844 
L 698.999131 -293.746857 
L 708.215943 -289.798871 
L 716.04199 -285.850885 
L 721.840301 -281.902899 
L 725.091432 -277.954913 
L 725.517 -274.006927 
L 723.139734 -270.05894 
L 718.264197 -266.110954 
L 711.414412 -262.162968 
L 703.274492 -258.214982 
L 694.640068 -254.266996 
L 686.350638 -250.319009 
L 679.183088 -246.371023 
L 673.731364 -242.423037 
L 670.318923 -238.475051 
L 668.962491 -234.527065 
L 669.368279 -230.579079 
L 670.94773 -226.631092 
L 672.881918 -222.683106 
L 674.280086 -218.73512 
L 674.424906 -214.787134 
L 673.006715 -210.839148 
L 670.208737 -206.891161 
L 666.574814 -202.943175 
L 662.730732 -198.995189 
L 659.123928 -195.047203 
L 655.913771 -191.099217 
L 653.022189 -187.15123 
L 650.254924 -183.203244 
L 647.399498 -179.255258 
L 644.270043 -175.307272 
L 640.724229 -171.359286 
L 636.681341 -167.4113 
L 632.143632 -163.463313 
L 627.20602 -159.515327 
L 622.045222 -155.567341 
L 616.892435 -151.619355 
L 611.997983 -147.671369 
L 607.59349 -143.723382 
L 603.855777 -139.775396 
L 600.879232 -135.82741 
L 598.665132 -131.879424 
L 597.132755 -127.931438 
L 596.148736 -123.983452 
L 595.563381 -120.035465 
L 595.241034 -116.087479 
L 595.076758 -112.139493 
L 594.999346 -108.191507 
z
" id="m474512295a" style="stroke:#4c4c4c;stroke-width:1.5;"/>
    </defs>
    <g clip-path="url(#pf2139d20fb)">
     <use style="fill:#cc8963;stroke:#4c4c4c;stroke-width:1.5;" x="0" xlink:href="#m474512295a" y="595.44"/>
    </g>
   </g>
   <g id="line2d_10">
    <path clip-path="url(#pf2139d20fb)" d="M 268.515 454.023647 
L 268.515 147.281948 
" style="fill:none;stroke:#4c4c4c;stroke-linecap:round;stroke-width:1.5;"/>
   </g>
   <g id="line2d_11">
    <path clip-path="url(#pf2139d20fb)" d="M 268.515 338.867057 
L 268.515 261.943172 
" style="fill:none;stroke:#4c4c4c;stroke-linecap:round;stroke-width:4.5;"/>
   </g>
   <g id="line2d_12">
    <path clip-path="url(#pf2139d20fb)" d="M 594.945 464.905871 
L 594.945 187.743796 
" style="fill:none;stroke:#4c4c4c;stroke-linecap:round;stroke-width:1.5;"/>
   </g>
   <g id="line2d_13">
    <path clip-path="url(#pf2139d20fb)" d="M 594.945 378.285476 
L 594.945 301.941274 
" style="fill:none;stroke:#4c4c4c;stroke-linecap:round;stroke-width:4.5;"/>
   </g>
   <g id="patch_3">
    <path d="M 105.3 521.01 
L 105.3 71.4528 
" style="fill:none;stroke:#ffffff;stroke-linecap:square;stroke-linejoin:miter;stroke-width:1.25;"/>
   </g>
   <g id="patch_4">
    <path d="M 758.16 521.01 
L 758.16 71.4528 
" style="fill:none;stroke:#ffffff;stroke-linecap:square;stroke-linejoin:miter;stroke-width:1.25;"/>
   </g>
   <g id="patch_5">
    <path d="M 105.3 521.01 
L 758.16 521.01 
" style="fill:none;stroke:#ffffff;stroke-linecap:square;stroke-linejoin:miter;stroke-width:1.25;"/>
   </g>
   <g id="patch_6">
    <path d="M 105.3 71.4528 
L 758.16 71.4528 
" style="fill:none;stroke:#ffffff;stroke-linecap:square;stroke-linejoin:miter;stroke-width:1.25;"/>
   </g>
   <g id="PathCollection_1">
    <defs>
     <path d="M 0 1.5 
C 0.397805 1.5 0.77937 1.341951 1.06066 1.06066 
C 1.341951 0.77937 1.5 0.397805 1.5 0 
C 1.5 -0.397805 1.341951 -0.77937 1.06066 -1.06066 
C 0.77937 -1.341951 0.397805 -1.5 0 -1.5 
C -0.397805 -1.5 -0.77937 -1.341951 -1.06066 -1.06066 
C -1.341951 -0.77937 -1.5 -0.397805 -1.5 0 
C -1.5 0.397805 -1.341951 0.77937 -1.06066 1.06066 
C -0.77937 1.341951 -0.397805 1.5 0 1.5 
z
" id="med148dff8d" style="stroke:#4c4c4c;"/>
    </defs>
    <g clip-path="url(#pf2139d20fb)">
     <use style="fill:#ffffff;stroke:#4c4c4c;" x="268.515" xlink:href="#med148dff8d" y="305.767179"/>
    </g>
   </g>
   <g id="PathCollection_2">
    <g clip-path="url(#pf2139d20fb)">
     <use style="fill:#ffffff;stroke:#4c4c4c;" x="594.945" xlink:href="#med148dff8d" y="331.036072"/>
    </g>
   </g>
   <g id="text_14">
    <!-- Mathematics theta score distribution based on poverty status -->
    <g style="fill:#262626;" transform="translate(270.324375 65.4528)scale(0.12 -0.12)">
     <defs>
      <path d="M 40.234375 0 
L 40.234375 6.546875 
Q 35.296875 -1.171875 25.734375 -1.171875 
Q 19.53125 -1.171875 14.328125 2.25 
Q 9.125 5.671875 6.265625 11.796875 
Q 3.421875 17.921875 3.421875 25.875 
Q 3.421875 33.640625 6 39.96875 
Q 8.59375 46.296875 13.765625 49.65625 
Q 18.953125 53.03125 25.34375 53.03125 
Q 30.03125 53.03125 33.6875 51.046875 
Q 37.359375 49.078125 39.65625 45.90625 
L 39.65625 71.578125 
L 48.390625 71.578125 
L 48.390625 0 
z
M 12.453125 25.875 
Q 12.453125 15.921875 16.640625 10.984375 
Q 20.84375 6.0625 26.5625 6.0625 
Q 32.328125 6.0625 36.34375 10.765625 
Q 40.375 15.484375 40.375 25.140625 
Q 40.375 35.796875 36.265625 40.765625 
Q 32.171875 45.75 26.171875 45.75 
Q 20.3125 45.75 16.375 40.96875 
Q 12.453125 36.1875 12.453125 25.875 
z
" id="ArialMT-100"/>
      <path d="M 6.59375 0 
L 6.59375 51.859375 
L 14.5 51.859375 
L 14.5 44.484375 
Q 20.21875 53.03125 31 53.03125 
Q 35.6875 53.03125 39.625 51.34375 
Q 43.5625 49.65625 45.515625 46.921875 
Q 47.46875 44.1875 48.25 40.4375 
Q 48.734375 37.984375 48.734375 31.890625 
L 48.734375 0 
L 39.9375 0 
L 39.9375 31.546875 
Q 39.9375 36.921875 38.90625 39.578125 
Q 37.890625 42.234375 35.28125 43.8125 
Q 32.671875 45.40625 29.15625 45.40625 
Q 23.53125 45.40625 19.453125 41.84375 
Q 15.375 38.28125 15.375 28.328125 
L 15.375 0 
z
" id="ArialMT-110"/>
      <path d="M 6.59375 -19.875 
L 6.59375 51.859375 
L 14.59375 51.859375 
L 14.59375 45.125 
Q 17.4375 49.078125 21 51.046875 
Q 24.5625 53.03125 29.640625 53.03125 
Q 36.28125 53.03125 41.359375 49.609375 
Q 46.4375 46.1875 49.015625 39.953125 
Q 51.609375 33.734375 51.609375 26.3125 
Q 51.609375 18.359375 48.75 11.984375 
Q 45.90625 5.609375 40.453125 2.21875 
Q 35.015625 -1.171875 29 -1.171875 
Q 24.609375 -1.171875 21.109375 0.6875 
Q 17.625 2.546875 15.375 5.375 
L 15.375 -19.875 
z
M 14.546875 25.640625 
Q 14.546875 15.625 18.59375 10.84375 
Q 22.65625 6.0625 28.421875 6.0625 
Q 34.28125 6.0625 38.453125 11.015625 
Q 42.625 15.96875 42.625 26.375 
Q 42.625 36.28125 38.546875 41.203125 
Q 34.46875 46.140625 28.8125 46.140625 
Q 23.1875 46.140625 18.859375 40.890625 
Q 14.546875 35.640625 14.546875 25.640625 
z
" id="ArialMT-112"/>
     </defs>
     <use xlink:href="#ArialMT-77"/>
     <use x="83.300781" xlink:href="#ArialMT-97"/>
     <use x="138.916016" xlink:href="#ArialMT-116"/>
     <use x="166.699219" xlink:href="#ArialMT-104"/>
     <use x="222.314453" xlink:href="#ArialMT-101"/>
     <use x="277.929688" xlink:href="#ArialMT-109"/>
     <use x="361.230469" xlink:href="#ArialMT-97"/>
     <use x="416.845703" xlink:href="#ArialMT-116"/>
     <use x="444.628906" xlink:href="#ArialMT-105"/>
     <use x="466.845703" xlink:href="#ArialMT-99"/>
     <use x="516.845703" xlink:href="#ArialMT-115"/>
     <use x="566.845703" xlink:href="#ArialMT-32"/>
     <use x="594.628906" xlink:href="#ArialMT-116"/>
     <use x="622.412109" xlink:href="#ArialMT-104"/>
     <use x="678.027344" xlink:href="#ArialMT-101"/>
     <use x="733.642578" xlink:href="#ArialMT-116"/>
     <use x="761.425781" xlink:href="#ArialMT-97"/>
     <use x="817.041016" xlink:href="#ArialMT-32"/>
     <use x="844.824219" xlink:href="#ArialMT-115"/>
     <use x="894.824219" xlink:href="#ArialMT-99"/>
     <use x="944.824219" xlink:href="#ArialMT-111"/>
     <use x="1000.439453" xlink:href="#ArialMT-114"/>
     <use x="1033.740234" xlink:href="#ArialMT-101"/>
     <use x="1089.355469" xlink:href="#ArialMT-32"/>
     <use x="1117.138672" xlink:href="#ArialMT-100"/>
     <use x="1172.753906" xlink:href="#ArialMT-105"/>
     <use x="1194.970703" xlink:href="#ArialMT-115"/>
     <use x="1244.970703" xlink:href="#ArialMT-116"/>
     <use x="1272.753906" xlink:href="#ArialMT-114"/>
     <use x="1306.054688" xlink:href="#ArialMT-105"/>
     <use x="1328.271484" xlink:href="#ArialMT-98"/>
     <use x="1383.886719" xlink:href="#ArialMT-117"/>
     <use x="1439.501953" xlink:href="#ArialMT-116"/>
     <use x="1467.285156" xlink:href="#ArialMT-105"/>
     <use x="1489.501953" xlink:href="#ArialMT-111"/>
     <use x="1545.117188" xlink:href="#ArialMT-110"/>
     <use x="1600.732422" xlink:href="#ArialMT-32"/>
     <use x="1628.515625" xlink:href="#ArialMT-98"/>
     <use x="1684.130859" xlink:href="#ArialMT-97"/>
     <use x="1739.746094" xlink:href="#ArialMT-115"/>
     <use x="1789.746094" xlink:href="#ArialMT-101"/>
     <use x="1845.361328" xlink:href="#ArialMT-100"/>
     <use x="1900.976562" xlink:href="#ArialMT-32"/>
     <use x="1928.759766" xlink:href="#ArialMT-111"/>
     <use x="1984.375" xlink:href="#ArialMT-110"/>
     <use x="2039.990234" xlink:href="#ArialMT-32"/>
     <use x="2067.773438" xlink:href="#ArialMT-112"/>
     <use x="2123.388672" xlink:href="#ArialMT-111"/>
     <use x="2179.003906" xlink:href="#ArialMT-118"/>
     <use x="2229.003906" xlink:href="#ArialMT-101"/>
     <use x="2284.619141" xlink:href="#ArialMT-114"/>
     <use x="2317.919922" xlink:href="#ArialMT-116"/>
     <use x="2345.703125" xlink:href="#ArialMT-121"/>
     <use x="2395.703125" xlink:href="#ArialMT-32"/>
     <use x="2423.486328" xlink:href="#ArialMT-115"/>
     <use x="2473.486328" xlink:href="#ArialMT-116"/>
     <use x="2501.269531" xlink:href="#ArialMT-97"/>
     <use x="2556.884766" xlink:href="#ArialMT-116"/>
     <use x="2584.667969" xlink:href="#ArialMT-117"/>
     <use x="2640.283203" xlink:href="#ArialMT-115"/>
    </g>
   </g>
  </g>
 </g>
 <defs>
  <clipPath id="pf2139d20fb">
   <rect height="449.5572" width="652.86" x="105.3" y="71.4528"/>
  </clipPath>
 </defs>
</svg>
